<?xml version="1.0" standalone="no"?>
<!DOCTYPE svg PUBLIC "-//W3C//DTD SVG 20010904//EN"
 "http://www.w3.org/TR/2001/REC-SVG-20010904/DTD/svg10.dtd">
<svg version="1.0" xmlns="http://www.w3.org/2000/svg"
 width="300.000000pt" height="300.000000pt" viewBox="0 0 300.000000 300.000000"
 preserveAspectRatio="xMidYMid meet">
<metadata>
Created by potrace 1.14, written by Peter Selinger 2001-2017
</metadata>
<g transform="translate(0.000000,300.000000) scale(0.100000,-0.100000)"
fill="#000000" stroke="none">
<path d="M1310 2850 c0 -5 -22 -10 -49 -10 -28 0 -53 -4 -56 -10 -3 -5 -18
-10 -32 -10 -69 0 -293 -96 -408 -175 -160 -109 -294 -246 -395 -405 -70 -110
-142 -275 -166 -383 -30 -132 -38 -453 -15 -594 15 -93 79 -273 131 -371 150
-277 395 -498 680 -612 68 -28 140 -48 260 -73 69 -14 396 -14 470 1 152 29
217 50 360 115 71 33 254 161 321 226 193 186 343 459 387 706 20 110 22 415
4 525 -18 103 -77 273 -127 366 -79 144 -146 233 -257 339 -96 93 -134 123
-239 188 -103 64 -307 147 -361 147 -15 0 -30 5 -33 10 -3 6 -28 10 -56 10
-27 0 -49 5 -49 10 0 6 -68 10 -185 10 -117 0 -185 -4 -185 -10z m116 -315
c48 -22 75 -31 161 -52 12 -3 24 -13 27 -22 8 -28 11 -170 3 -177 -12 -12
-237 -5 -265 8 -26 13 -26 14 -23 117 3 99 14 151 33 151 5 0 34 -11 64 -25z
m-176 -265 c41 -22 190 -40 336 -40 l150 0 17 -47 c17 -49 16 -88 -3 -107 -29
-30 -476 -7 -496 25 -3 5 -14 9 -24 9 -39 0 -66 102 -40 151 12 21 32 24 60 9z
m60 -230 c25 -6 135 -14 245 -17 133 -3 202 -9 207 -17 14 -22 20 -94 9 -114
-6 -11 -21 -22 -33 -24 -31 -4 -29 -31 2 -38 33 -8 50 -44 50 -107 0 -44 -4
-55 -26 -72 -24 -19 -40 -21 -148 -21 -66 0 -137 4 -156 9 -19 5 -59 12 -87
15 -57 7 -67 -2 -37 -35 15 -17 15 -20 -4 -46 -41 -59 -102 -181 -126 -255
-70 -209 6 -417 186 -509 61 -31 206 -31 263 1 54 30 101 76 133 130 24 40 27
55 27 140 -1 79 -5 109 -29 175 -34 94 -97 223 -138 283 -33 48 -34 48 61 56
l64 6 41 -43 c72 -75 175 -219 216 -303 68 -138 84 -231 56 -336 -45 -173
-150 -303 -302 -379 -87 -43 -124 -52 -244 -56 -124 -5 -164 4 -285 65 -169
85 -298 239 -349 417 -35 117 -14 239 66 403 41 85 66 120 136 194 l86 90 48
-6 c57 -8 65 10 19 43 -36 26 -68 119 -51 150 11 22 40 27 68 12 9 -5 48 -12
85 -16 63 -6 69 -5 65 12 -2 12 -16 21 -43 26 -115 23 -141 31 -158 45 -22 19
-40 87 -32 119 6 27 18 28 115 3z"/>
</g>
</svg>
